<?xml version="1.0" encoding="UTF-8"?>
<svg id="Layer_2" data-name="Layer 2" xmlns="http://www.w3.org/2000/svg" xmlns:xlink="http://www.w3.org/1999/xlink" viewBox="0 0 181.765 181.765">
  <defs>
    <style>
      .cls-1, .cls-2 {
        opacity: .65;
      }

      .cls-2 {
        fill: #fff;
      }

      .cls-2, .cls-3 {
        stroke-width: 0px;
      }

      .cls-3 {
        fill: url(#radial-gradient);
      }
    </style>
    <radialGradient id="radial-gradient" cx="90.883" cy="90.882" fx="90.883" fy="90.882" r="79.66" gradientUnits="userSpaceOnUse">
      <stop offset=".559" stop-color="#fff" stop-opacity="0"/>
      <stop offset=".605" stop-color="rgba(255, 255, 255, .019)" stop-opacity=".019"/>
      <stop offset=".66" stop-color="rgba(255, 255, 255, .075)" stop-opacity=".075"/>
      <stop offset=".718" stop-color="rgba(255, 255, 255, .168)" stop-opacity=".168"/>
      <stop offset=".78" stop-color="rgba(255, 255, 255, .299)" stop-opacity=".299"/>
      <stop offset=".844" stop-color="rgba(255, 255, 255, .466)" stop-opacity=".466"/>
      <stop offset=".91" stop-color="rgba(255, 255, 255, .671)" stop-opacity=".671"/>
      <stop offset=".976" stop-color="rgba(255, 255, 255, .908)" stop-opacity=".908"/>
      <stop offset="1" stop-color="#fff"/>
    </radialGradient>
  </defs>
  <g id="Dimensions">
    <g>
      <g class="cls-1">
        <path class="cls-3" d="M90.883,41.222c27.383,0,49.66,22.277,49.66,49.66s-22.277,49.66-49.66,49.66-49.66-22.277-49.66-49.66,22.277-49.66,49.66-49.66M90.883,11.222C46.888,11.222,11.223,46.887,11.223,90.882s35.665,79.66,79.66,79.66,79.66-35.665,79.66-79.66S134.878,11.222,90.883,11.222h0Z"/>
      </g>
      <g>
        <circle class="cls-2" cx="90.883" cy="90.882" r="12.398"/>
        <path class="cls-2" d="M101.61,8.807c.205,1.03.339,2.1.409,3.195.671,10.436-6.632,23.231-11.139,23.231s-11.809-12.795-11.133-23.231c.069-1.096.204-2.165.409-3.195,1.044-5.246,5.053-8.807,9.121-8.807h3.212c4.067,0,8.077,3.561,9.121,8.807Z"/>
        <path class="cls-2" d="M80.155,172.958c-.205-1.03-.339-2.1-.409-3.195-.671-10.436,6.632-23.231,11.139-23.231s11.809,12.795,11.133,23.231c-.069,1.096-.204,2.165-.409,3.195-1.044,5.246-5.053,8.807-9.121,8.807h-3.212c-4.067,0-8.077-3.561-9.121-8.807Z"/>
        <path class="cls-2" d="M172.958,101.61c-1.03.205-2.1.339-3.195.409-10.436.671-23.231-6.632-23.231-11.139s12.795-11.809,23.231-11.133c1.096.069,2.165.204,3.195.409,5.246,1.044,8.807,5.053,8.807,9.121v3.212c0,4.067-3.561,8.077-8.807,9.121Z"/>
        <path class="cls-2" d="M8.807,80.155c1.03-.205,2.1-.339,3.195-.409,10.436-.671,23.231,6.632,23.231,11.139s-12.795,11.809-23.231,11.133c-1.096-.069-2.165-.204-3.195-.409-5.246-1.044-8.807-5.053-8.807-9.121v-3.212c0-4.067,3.561-8.077,8.807-9.121Z"/>
      </g>
    </g>
  </g>
</svg>